# xmcd
#
# Track frame offsets: 
#        150
#        18881
#        33097
#        48406
#        73894
#        95294
#        126949
#        155027
#        170765
#        188667
#        204142
#        220338
#        237300
#        256007
#        270210
#        285546
#        311055
#
# Disc length: 4430 seconds
#
# Revision: 0
# Processed by: cddbd v1.5.1PL0 Copyright (c) Steve Scherf et al.
# Submitted via: ExactAudioCopy v0.90b4
#
DISCID=e8114c11
DTITLE=Darcy Gonçalves - Deus Sabe
DYEAR=2004
DGENRE=Blues
TTITLE0=Do Calvário Um Dia...
TTITLE1=Jesus Tocou-Me
TTITLE2=Estou Seguindo
TTITLE3=Deus Me Ama
TTITLE4=Lírio Do Vale
TTITLE5=Jesus Olhou-Me Nos Olhos
TTITLE6=Abraão, O Amigo De Deus
TTITLE7=O Deus Da Montanha
TTITLE8=Deus Sabe, Deus Ouve, Deus Vê
TTITLE9=Quando Jesus Me Achou
TTITLE10=Ele
TTITLE11=Aprendi
TTITLE12=Do Calvário Um Dia... (Bônus Play Back)
TTITLE13=Jesus Tocou-Me (Bônus Play Back)
TTITLE14=Estou Seguindo (Bônus Play Back)
TTITLE15=Deus Me Ama (Bônus Play Back)
TTITLE16=Lírio Do Vale (Bônus Play Back)
EXTD=
EXTT0=
EXTT1=
EXTT2=
EXTT3=
EXTT4=
EXTT5=
EXTT6=
EXTT7=
EXTT8=
EXTT9=
EXTT10=
EXTT11=
EXTT12=
EXTT13=
EXTT14=
EXTT15=
EXTT16=
PLAYORDER=
